REM DIRINDEX 1\6,1\2\7,1\2\8,1\2\9,1\3\10,1\3\11,1\4\12,1\4\13,1\4\14,1\5\15,1\5\16,1\5\17
REM DIRNAME cjc041,folder01,folder02,folder03,folder04,folder05,folder06,folder07,folder08,folder09,folder10,folder11,folder12,folder13,folder14,folder15,folder16
TITLE ""
FILE "3Q_t2_0577-0592.mp3" MP3
  TRACK 01 AUDIO
    TITLE "7:cjc041_5147"
    INDEX 01 00:00:00
  TRACK 02 AUDIO
    TITLE "0:"
    INDEX 01 00:01:17
  TRACK 03 AUDIO
    TITLE "8:cjc041_5148"
    INDEX 01 00:01:73
  TRACK 04 AUDIO
    TITLE "0:"
    INDEX 01 00:02:73
  TRACK 05 AUDIO
    TITLE "9:cjc041_5149"
    INDEX 01 00:03:49
  TRACK 06 AUDIO
    TITLE "0:"
    INDEX 01 00:05:07
  TRACK 07 AUDIO
    TITLE "7:cjc041_5150"
    INDEX 01 00:06:59
  TRACK 08 AUDIO
    TITLE "0:"
    INDEX 01 00:08:09
  TRACK 09 AUDIO
    TITLE "8:cjc041_5151"
    INDEX 01 00:08:62
  TRACK 10 AUDIO
    TITLE "0:"
    INDEX 01 00:11:31
  TRACK 11 AUDIO
    TITLE "9:cjc041_5152"
    INDEX 01 00:12:07
  TRACK 12 AUDIO
    TITLE "0:"
    INDEX 01 00:13:30
  TRACK 13 AUDIO
    TITLE "7:cjc041_5153"
    INDEX 01 00:15:11
  TRACK 14 AUDIO
    TITLE "0:"
    INDEX 01 00:16:14
  TRACK 15 AUDIO
    TITLE "8:cjc041_5154"
    INDEX 01 00:16:65
  TRACK 16 AUDIO
    TITLE "0:"
    INDEX 01 00:18:66
  TRACK 17 AUDIO
    TITLE "9:cjc041_5155"
    INDEX 01 00:19:46
  TRACK 18 AUDIO
    TITLE "0:"
    INDEX 01 00:20:51
  TRACK 19 AUDIO
    TITLE "7:cjc041_5156"
    INDEX 01 00:22:36
  TRACK 20 AUDIO
    TITLE "0:"
    INDEX 01 00:23:71
  TRACK 21 AUDIO
    TITLE "8:cjc041_5157"
    INDEX 01 00:24:53
  TRACK 22 AUDIO
    TITLE "0:"
    INDEX 01 00:27:34
  TRACK 23 AUDIO
    TITLE "9:cjc041_5158"
    INDEX 01 00:28:13
  TRACK 24 AUDIO
    TITLE "0:"
    INDEX 01 00:29:52
  TRACK 25 AUDIO
    TITLE "7:cjc041_5159"
    INDEX 01 00:31:31
  TRACK 26 AUDIO
    TITLE "0:"
    INDEX 01 00:32:72
  TRACK 27 AUDIO
    TITLE "8:cjc041_5160"
    INDEX 01 00:33:44
  TRACK 28 AUDIO
    TITLE "0:"
    INDEX 01 00:34:57
  TRACK 29 AUDIO
    TITLE "9:cjc041_5161"
    INDEX 01 00:35:33
  TRACK 30 AUDIO
    TITLE "0:"
    INDEX 01 00:36:74
  TRACK 31 AUDIO
    TITLE "7:cjc041_5162"
    INDEX 01 00:38:47
  TRACK 32 AUDIO
    TITLE "0:"
    INDEX 01 00:39:56
  TRACK 33 AUDIO
    TITLE "8:cjc041_5163"
    INDEX 01 00:40:32
  TRACK 34 AUDIO
    TITLE "0:"
    INDEX 01 00:41:26
  TRACK 35 AUDIO
    TITLE "9:cjc041_5164"
    INDEX 01 00:42:02
  TRACK 36 AUDIO
    TITLE "0:"
    INDEX 01 00:43:17
  TRACK 37 AUDIO
    TITLE "7:cjc041_5165"
    INDEX 01 00:44:69
  TRACK 38 AUDIO
    TITLE "0:"
    INDEX 01 00:46:13
  TRACK 39 AUDIO
    TITLE "8:cjc041_5166"
    INDEX 01 00:46:68
  TRACK 40 AUDIO
    TITLE "0:"
    INDEX 01 00:48:16
  TRACK 41 AUDIO
    TITLE "9:cjc041_5167"
    INDEX 01 00:48:69
  TRACK 42 AUDIO
    TITLE "0:"
    INDEX 01 00:50:13
  TRACK 43 AUDIO
    TITLE "7:cjc041_5168"
    INDEX 01 00:51:69
  TRACK 44 AUDIO
    TITLE "0:"
    INDEX 01 00:53:04
  TRACK 45 AUDIO
    TITLE "8:cjc041_5169"
    INDEX 01 00:53:58
  TRACK 46 AUDIO
    TITLE "0:"
    INDEX 01 00:55:06
  TRACK 47 AUDIO
    TITLE "9:cjc041_5170"
    INDEX 01 00:55:57
  TRACK 48 AUDIO
    TITLE "0:"
    INDEX 01 00:56:71
  TRACK 49 AUDIO
    TITLE "7:cjc041_5171"
    INDEX 01 00:58:52
  TRACK 50 AUDIO
    TITLE "0:"
    INDEX 01 00:59:71
  TRACK 51 AUDIO
    TITLE "8:cjc041_5172"
    INDEX 01 01:00:51
  TRACK 52 AUDIO
    TITLE "0:"
    INDEX 01 01:01:56
  TRACK 53 AUDIO
    TITLE "9:cjc041_5173"
    INDEX 01 01:02:32
  TRACK 54 AUDIO
    TITLE "0:"
    INDEX 01 01:03:53
  TRACK 55 AUDIO
    TITLE "7:cjc041_5174"
    INDEX 01 01:05:30
  TRACK 56 AUDIO
    TITLE "0:"
    INDEX 01 01:06:47
  TRACK 57 AUDIO
    TITLE "8:cjc041_5175"
    INDEX 01 01:07:27
  TRACK 58 AUDIO
    TITLE "0:"
    INDEX 01 01:08:58
  TRACK 59 AUDIO
    TITLE "9:cjc041_5176"
    INDEX 01 01:09:36
  TRACK 60 AUDIO
    TITLE "0:"
    INDEX 01 01:10:55
  TRACK 61 AUDIO
    TITLE "7:cjc041_5177"
    INDEX 01 01:12:34
  TRACK 62 AUDIO
    TITLE "0:"
    INDEX 01 01:13:59
  TRACK 63 AUDIO
    TITLE "8:cjc041_5178"
    INDEX 01 01:14:39
  TRACK 64 AUDIO
    TITLE "0:"
    INDEX 01 01:15:42
  TRACK 65 AUDIO
    TITLE "9:cjc041_5179"
    INDEX 01 01:16:16
  TRACK 66 AUDIO
    TITLE "0:"
    INDEX 01 01:17:43
  TRACK 67 AUDIO
    TITLE "7:cjc041_5180"
    INDEX 01 01:19:28
  TRACK 68 AUDIO
    TITLE "0:"
    INDEX 01 01:20:44
  TRACK 69 AUDIO
    TITLE "8:cjc041_5181"
    INDEX 01 01:21:23
  TRACK 70 AUDIO
    TITLE "0:"
    INDEX 01 01:22:50
  TRACK 71 AUDIO
    TITLE "9:cjc041_5182"
    INDEX 01 01:23:28
  TRACK 72 AUDIO
    TITLE "0:"
    INDEX 01 01:24:47
  TRACK 73 AUDIO
    TITLE "7:cjc041_5183"
    INDEX 01 01:26:27
  TRACK 74 AUDIO
    TITLE "0:"
    INDEX 01 01:27:50
  TRACK 75 AUDIO
    TITLE "8:cjc041_5184"
    INDEX 01 01:28:27
  TRACK 76 AUDIO
    TITLE "0:"
    INDEX 01 01:29:54
  TRACK 77 AUDIO
    TITLE "9:cjc041_5185"
    INDEX 01 01:30:30
  TRACK 78 AUDIO
    TITLE "0:"
    INDEX 01 01:31:57
  TRACK 79 AUDIO
    TITLE "7:cjc041_5186"
    INDEX 01 01:33:40
  TRACK 80 AUDIO
    TITLE "0:"
    INDEX 01 01:34:57
  TRACK 81 AUDIO
    TITLE "8:cjc041_5187"
    INDEX 01 01:35:33
  TRACK 82 AUDIO
    TITLE "0:"
    INDEX 01 01:36:58
  TRACK 83 AUDIO
    TITLE "9:cjc041_5188"
    INDEX 01 01:37:34
  TRACK 84 AUDIO
    TITLE "0:"
    INDEX 01 01:38:53
  TRACK 85 AUDIO
    TITLE "7:cjc041_5189"
    INDEX 01 01:40:31
  TRACK 86 AUDIO
    TITLE "0:"
    INDEX 01 01:41:56
  TRACK 87 AUDIO
    TITLE "8:cjc041_5190"
    INDEX 01 01:42:35
  TRACK 88 AUDIO
    TITLE "0:"
    INDEX 01 01:44:70
  TRACK 89 AUDIO
    TITLE "9:cjc041_5191"
    INDEX 01 01:45:45
  TRACK 90 AUDIO
    TITLE "0:"
    INDEX 01 01:46:72
  TRACK 91 AUDIO
    TITLE "7:cjc041_5192"
    INDEX 01 01:48:54
  TRACK 92 AUDIO
    TITLE "0:"
    INDEX 01 01:49:71
  TRACK 93 AUDIO
    TITLE "8:cjc041_5193"
    INDEX 01 01:50:51
  TRACK 94 AUDIO
    TITLE "0:"
    INDEX 01 01:53:51
  TRACK 95 AUDIO
    TITLE "9:cjc041_5194"
    INDEX 01 01:54:23
  TRACK 96 AUDIO
    TITLE "0:"
    INDEX 01 01:55:46
